<svg 
 xmlns="http://www.w3.org/2000/svg"
 xmlns:xlink="http://www.w3.org/1999/xlink"
 width="55px" height="55px">
<path fill-rule="evenodd"  fill-opacity="0.259" fill="rgb(170, 191, 202)"
 d="M30.208,22.977 L32.329,22.977 L31.261,24.396 L30.208,22.977 ZM31.518,21.611 L32.342,21.611 L32.342,22.368 L31.356,22.368 C31.559,22.287 31.518,21.611 31.518,21.611 L31.518,21.611 ZM47.672,45.696 C43.079,50.709 36.766,53.804 29.992,54.366 C29.992,54.015 30.086,53.610 30.140,53.176 C30.278,51.275 29.805,49.379 28.789,47.767 C27.926,45.134 26.605,42.675 24.885,40.504 C24.885,40.504 23.723,38.678 24.223,37.610 C26.195,38.123 25.952,37.420 26.357,36.501 C26.735,34.921 26.885,33.296 26.803,31.672 C26.847,30.819 26.281,30.054 25.452,29.847 L25.857,28.414 C27.263,29.217 28.760,29.848 30.316,30.293 C32.396,30.807 32.599,30.145 33.720,29.374 C34.841,28.604 34.828,25.844 34.828,25.844 L35.774,25.844 L35.314,24.207 C35.314,24.207 35.071,22.381 35.720,22.030 C36.368,21.679 36.125,21.015 36.530,21.070 C36.835,21.060 37.125,20.934 37.341,20.719 L42.420,20.719 L42.420,20.258 L43.690,20.258 L43.839,19.853 L47.135,19.853 L47.595,20.258 L49.553,20.258 L49.553,18.987 L47.595,18.987 L47.338,19.338 L43.879,19.338 L43.879,18.487 L43.366,18.487 L43.366,16.269 L42.907,16.269 L42.907,18.460 L29.789,18.460 L29.789,17.689 L28.681,17.594 L28.681,16.377 L28.168,16.471 L28.168,17.689 L25.723,18.459 L25.587,17.243 L27.249,15.890 C27.857,11.833 23.196,8.736 20.251,11.008 C17.306,13.280 18.427,17.256 18.427,17.256 C16.505,16.574 14.373,17.403 13.415,19.204 C12.180,21.152 11.727,23.495 12.145,25.763 L12.145,26.668 C11.567,26.633 10.987,26.665 10.416,26.763 C9.978,26.869 9.681,27.275 9.714,27.723 L9.443,31.240 L9.254,33.025 L10.835,33.431 L10.835,33.836 L9.916,34.080 L9.916,37.069 L10.213,37.312 L10.213,40.017 C9.349,40.436 9.862,40.909 9.605,41.072 C9.349,41.234 9.403,41.680 9.849,42.181 C9.187,42.640 9.443,42.992 9.997,44.466 C9.724,45.379 9.547,46.317 9.470,47.266 C6.166,44.223 3.671,40.404 2.212,36.155 C-0.754,27.521 0.831,17.974 6.427,10.763 C9.181,7.215 12.776,4.409 16.886,2.600 C25.234,-1.076 34.874,-0.287 42.514,4.697 C46.275,7.151 49.366,10.504 51.507,14.453 C53.649,18.403 54.775,22.825 54.782,27.318 C54.805,34.120 52.267,40.682 47.672,45.696 ZM17.522,44.858 C18.441,46.522 19.562,46.481 19.562,46.481 C20.512,47.595 21.375,48.779 22.142,50.025 C23.210,51.756 24.466,51.148 24.466,51.148 C24.826,52.001 24.916,52.946 24.723,53.852 C24.648,53.974 24.594,54.106 24.561,54.244 C21.177,53.850 17.900,52.818 14.901,51.201 C14.930,50.981 14.930,50.759 14.901,50.539 L16.171,46.792 C16.171,46.792 16.968,46.495 17.522,44.858 Z"/>
</svg>