<svg 
 xmlns="http://www.w3.org/2000/svg"
 xmlns:xlink="http://www.w3.org/1999/xlink"
 width="13px" height="13px">
<path fill-rule="evenodd"  fill="rgb(48, 172, 41)"
 d="M12.673,2.708 L12.022,5.963 C11.921,6.458 11.544,6.851 11.054,6.972 L9.321,7.607 C9.026,8.086 8.645,8.512 8.185,8.861 L8.185,9.553 L9.117,9.737 C9.668,9.846 10.065,10.332 10.065,10.895 L10.065,11.373 C10.065,12.024 9.535,12.554 8.884,12.554 L3.718,12.554 C3.095,12.554 2.585,12.024 2.585,11.373 L2.585,10.895 C2.585,10.336 2.962,9.850 3.485,9.737 L4.308,9.556 L4.308,8.841 C3.890,8.495 3.544,8.072 3.274,7.599 L1.697,6.968 C1.231,6.840 0.873,6.445 0.785,5.951 L0.190,2.700 C0.174,2.620 0.166,2.539 0.166,2.455 C0.166,1.735 0.725,1.149 1.412,1.149 L1.962,1.149 L1.898,0.731 C1.870,0.554 1.922,0.373 2.038,0.236 C2.159,0.100 2.328,0.019 2.508,0.019 L10.202,0.019 C10.383,0.019 10.555,0.100 10.676,0.240 C10.792,0.381 10.841,0.562 10.813,0.743 L10.745,1.149 L11.399,1.149 C12.118,1.149 12.701,1.735 12.697,2.451 C12.697,2.535 12.689,2.624 12.673,2.708 ZM5.108,7.900 C5.385,8.130 5.542,8.467 5.542,8.833 L5.542,9.593 C5.542,10.151 5.164,10.637 4.642,10.750 L3.818,10.931 L3.818,11.321 L8.828,11.321 L8.828,10.939 L7.896,10.754 C7.345,10.641 6.944,10.155 6.944,9.593 L6.944,8.833 C6.944,8.459 7.120,8.105 7.418,7.885 C8.117,7.362 8.579,6.598 8.723,5.738 L9.467,1.257 L3.228,1.257 L3.911,5.746 C4.043,6.610 4.469,7.378 5.108,7.900 ZM1.424,2.382 C1.416,2.390 1.400,2.415 1.400,2.451 C1.400,2.459 1.404,2.467 1.404,2.475 L2.006,5.726 C2.014,5.754 2.022,5.771 2.030,5.774 C2.058,5.782 2.091,5.791 2.119,5.803 L2.720,6.043 C2.714,6.005 2.699,5.970 2.693,5.931 L2.150,2.382 L1.424,2.382 ZM11.467,2.455 C11.467,2.419 11.435,2.387 11.399,2.387 L10.538,2.387 L9.945,5.943 C9.937,5.989 9.919,6.031 9.910,6.076 L10.668,5.799 C10.696,5.786 10.728,5.779 10.760,5.771 C10.784,5.766 10.809,5.746 10.813,5.718 L11.467,2.471 C11.467,2.467 11.467,2.459 11.467,2.455 Z"/>
</svg>