<svg 
 xmlns="http://www.w3.org/2000/svg"
 xmlns:xlink="http://www.w3.org/1999/xlink"
 width="17px" height="12px">
<path fill-rule="evenodd"  fill="rgb(23, 192, 109)"
 d="M6.015,0.843 C5.750,0.860 5.518,1.017 5.405,1.266 L3.440,5.565 L1.490,5.565 C1.089,5.557 0.760,5.888 0.760,6.302 C0.752,6.717 1.073,7.056 1.474,7.056 C1.482,7.056 1.490,7.056 1.498,7.056 L3.905,7.056 C4.186,7.056 4.443,6.890 4.563,6.625 L6.063,3.353 L9.265,10.593 C9.434,10.966 9.859,11.132 10.228,10.958 C10.388,10.883 10.517,10.751 10.581,10.585 L12.073,7.065 L15.692,7.065 C16.093,7.073 16.422,6.741 16.422,6.327 C16.430,5.913 16.110,5.573 15.708,5.573 C15.700,5.573 15.692,5.573 15.684,5.573 L11.592,5.573 C11.303,5.573 11.046,5.747 10.934,6.012 L9.899,8.464 L6.721,1.291 C6.593,1.001 6.312,0.827 6.015,0.843 L6.015,0.843 Z"/>
</svg>